<?xml version="1.0" standalone="no"?>
<!DOCTYPE svg PUBLIC "-//W3C//DTD SVG 20010904//EN"
 "http://www.w3.org/TR/2001/REC-SVG-20010904/DTD/svg10.dtd">
<svg version="1.0" xmlns="http://www.w3.org/2000/svg"
 width="800.000000pt" height="800.000000pt" viewBox="0 0 800.000000 800.000000"
 preserveAspectRatio="xMidYMid meet">

<g transform="translate(0.000000,800.000000) scale(0.100000,-0.100000)"
fill="#000000" stroke="none">
<path d="M3195 7496 c-21 -32 -60 -34 -116 -5 -23 11 -44 18 -47 15 -3 -3 -1
-6 4 -6 6 0 19 -6 29 -14 17 -12 10 -13 -53 -8 -57 4 -85 0 -137 -17 -35 -12
-70 -21 -77 -20 -18 4 -238 -102 -233 -111 3 -4 -8 -13 -23 -19 -15 -6 -45
-39 -69 -74 -85 -128 -147 -192 -230 -240 -141 -81 -214 -183 -199 -277 5 -35
2 -42 -39 -88 -55 -61 -75 -106 -75 -170 0 -35 6 -58 22 -78 12 -16 22 -30 22
-30 1 -1 11 -4 22 -8 15 -5 31 1 53 20 l31 26 0 -54 c0 -49 -3 -57 -30 -76
-97 -72 -106 -287 -20 -538 33 -98 67 -159 112 -205 l33 -32 -3 -186 c-2 -102
1 -199 5 -215 9 -28 9 -28 28 -10 29 29 149 194 177 244 14 25 32 63 39 85
l13 40 14 -50 c21 -78 84 -237 104 -264 17 -22 17 -24 -4 -40 -16 -14 -22 -31
-24 -77 -5 -86 -9 -98 -72 -202 -68 -112 -128 -172 -172 -172 -54 0 -167 -66
-244 -142 -52 -51 -110 -92 -215 -154 -131 -77 -245 -157 -511 -359 -53 -40
-134 -97 -181 -128 -102 -65 -203 -177 -256 -281 -40 -80 -163 -445 -187 -556
-9 -41 -20 -145 -26 -230 -8 -136 -16 -179 -62 -355 l-52 -200 -1 -225 c0
-165 -5 -250 -18 -320 -74 -412 -81 -470 -82 -675 -1 -110 -5 -221 -9 -246
-10 -59 -3 -64 120 -89 255 -53 938 -139 978 -124 41 16 72 176 58 295 -8 67
-7 81 18 154 31 90 33 88 49 -41 5 -39 16 -82 24 -95 8 -13 29 -68 47 -122 26
-81 31 -108 26 -148 -6 -45 -5 -50 16 -59 43 -18 422 -32 1008 -37 731 -7
1169 8 1737 58 382 34 583 62 639 90 l49 24 -2 69 c-3 85 -38 283 -109 621
-47 219 -124 669 -124 718 0 18 68 -45 93 -85 15 -24 15 -33 4 -80 -10 -38
-12 -89 -7 -178 5 -112 10 -133 40 -205 29 -69 48 -95 135 -185 55 -58 122
-131 149 -163 57 -69 140 -129 261 -191 106 -54 191 -73 253 -57 36 10 175
105 294 202 87 69 171 233 204 398 26 129 28 145 15 137 -5 -4 -7 3 -4 14 3
11 11 20 17 20 15 0 92 254 105 345 5 39 15 113 21 165 6 52 23 147 37 210 36
165 31 262 -20 362 -33 65 -37 81 -37 148 0 41 5 123 11 181 11 93 10 110 -5
139 -9 18 -16 52 -16 75 0 41 4 46 128 166 70 69 174 162 232 207 58 45 121
101 140 125 39 47 102 101 193 165 43 29 67 54 80 82 22 49 42 227 42 377 0
104 -2 113 -24 137 -23 25 -23 26 -7 67 18 43 14 72 -12 102 -19 22 -34 4 -23
-27 8 -21 4 -29 -43 -80 -23 -23 -30 -41 -30 -71 -1 -36 -4 -40 -26 -40 -14
-1 -41 -15 -60 -33 -19 -18 -38 -32 -43 -32 -11 0 -67 -62 -67 -74 0 -13 -41
-46 -57 -46 -7 0 -17 -10 -22 -22 -6 -18 -10 -10 -15 37 -11 95 -42 185 -62
185 -8 0 -14 -4 -14 -9 0 -5 -11 -12 -24 -15 -15 -4 -24 -13 -24 -24 1 -9 -2
-29 -5 -45 -10 -39 -51 -38 -72 3 -23 44 -26 37 -8 -18 24 -73 27 -119 10
-146 -14 -21 -14 -26 -1 -45 13 -18 14 -40 9 -121 -10 -131 -32 -156 -33 -38
-1 46 -5 97 -11 113 -9 28 -9 27 -10 -20 -1 -32 -4 -45 -10 -37 -6 10 -10 7
-15 -12 -3 -14 -13 -26 -21 -26 -8 0 -18 -12 -21 -26 -16 -63 -28 19 -35 226
-4 118 -8 216 -8 218 -4 9 -20 -1 -25 -15 -6 -17 -28 -63 -45 -93 -5 -8 -20
-14 -33 -13 -22 1 -24 -2 -22 -40 1 -30 -3 -47 -17 -60 -26 -24 -24 -73 4
-100 26 -26 31 -57 10 -57 -13 0 -13 -3 -3 -15 10 -12 9 -15 -4 -15 -14 0 -15
-4 -6 -20 6 -11 7 -20 2 -20 -5 0 -9 -17 -8 -37 1 -30 -4 -40 -24 -50 -14 -7
-19 -13 -12 -13 6 0 12 -4 12 -9 0 -6 -16 -7 -35 -4 -31 5 -35 3 -35 -15 0
-27 -17 -37 -60 -34 -26 2 -31 0 -20 -7 8 -6 34 -11 58 -11 48 0 51 -7 18 -47
-22 -26 -23 -31 -10 -53 19 -36 18 -38 -22 -46 -31 -6 -40 -3 -56 17 -10 13
-17 34 -15 47 3 12 -11 52 -29 88 -18 37 -32 70 -29 74 2 3 -11 12 -30 18 -18
7 -40 23 -48 35 -8 12 -43 54 -77 92 -73 83 -105 141 -132 244 -23 90 -53 161
-67 161 -6 0 -9 -12 -7 -27 2 -16 1 -20 -1 -10 -6 23 -23 22 -23 -2 0 -11 9
-23 20 -26 20 -6 28 -25 11 -25 -4 0 -6 -11 -3 -25 2 -14 11 -25 18 -25 10 0
14 -14 14 -50 0 -38 -5 -54 -22 -70 -12 -11 -25 -20 -30 -20 -4 0 -8 -5 -8
-11 0 -6 7 -8 16 -5 22 9 94 -72 94 -106 0 -8 9 -31 20 -53 15 -29 17 -41 8
-46 -7 -5 -15 -4 -18 0 -3 5 -14 5 -24 1 -19 -6 -19 -7 0 -14 18 -7 17 -8 -6
-21 -14 -8 -20 -14 -13 -15 6 0 9 -9 6 -19 -4 -16 3 -22 34 -30 21 -6 47 -17
58 -26 19 -14 19 -16 2 -29 -10 -8 -14 -17 -9 -20 5 -3 8 -21 7 -41 -1 -19 2
-35 7 -35 4 0 8 -9 8 -19 0 -11 7 -26 15 -35 13 -13 13 -16 -1 -31 -13 -12
-19 -13 -30 -4 -10 8 -9 0 4 -30 11 -23 22 -44 25 -48 12 -12 7 -19 -15 -20
-13 -1 -24 -7 -26 -12 -2 -5 -10 -7 -18 -4 -11 4 -14 -1 -10 -21 5 -26 -7 -36
-19 -16 -3 5 -12 10 -18 10 -7 0 -4 -5 6 -11 9 -6 14 -15 11 -21 -4 -6 2 -18
12 -26 16 -13 17 -14 2 -9 -11 4 -18 1 -18 -5 0 -8 -7 -6 -17 4 -15 16 -18 16
-40 -8 -23 -25 -23 -27 -7 -53 9 -14 23 -30 31 -34 7 -4 13 -13 13 -19 0 -7
10 -23 23 -36 12 -14 15 -22 7 -18 -12 6 -12 5 1 -6 24 -21 29 -45 12 -60 -9
-7 -18 -12 -20 -10 -1 1 -6 2 -10 2 -4 0 1 -6 12 -13 10 -8 15 -18 12 -24 -4
-5 3 -20 14 -31 11 -12 15 -22 9 -22 -5 0 -10 -19 -10 -42 0 -32 3 -39 10 -28
5 8 10 10 10 4 0 -18 -13 -24 -27 -12 -11 9 -12 7 -7 -7 5 -13 4 -16 -4 -11
-7 4 -12 2 -12 -3 0 -6 -8 -11 -17 -12 -12 -1 -10 -4 7 -9 25 -8 25 -8 -8 -15
-24 -6 -34 -15 -39 -34 -8 -35 -33 -72 -44 -65 -5 3 -4 -7 1 -21 8 -20 7 -24
-2 -19 -7 5 -21 9 -31 9 -27 2 -77 62 -77 93 0 57 32 221 59 307 23 70 30 115
34 205 l5 115 -70 140 c-127 253 -162 293 -312 366 -84 40 -116 50 -187 58
-101 11 -219 40 -331 81 -114 42 -412 198 -554 291 -70 46 -131 79 -146 79
-25 0 -88 40 -120 76 -19 23 -42 97 -64 214 -17 94 -26 116 -59 145 -15 13
-27 40 -34 80 -13 68 -13 68 64 110 61 33 100 68 115 106 7 15 36 46 65 68
130 98 213 308 202 508 l-5 93 36 28 c20 16 88 62 150 103 l114 74 -94 3
c-196 5 -1145 72 -1183 83 -22 6 -52 17 -67 25 -23 12 -27 11 -32 -2 -3 -9 -3
-21 0 -27 4 -7 -8 2 -27 19 -19 17 -44 39 -55 50 -12 10 -25 29 -28 42 -9 28
-24 21 -20 -10 1 -13 3 -28 3 -35 2 -20 54 -75 86 -89 16 -7 23 -13 14 -14
-27 0 -69 26 -92 57 -12 17 -28 28 -34 26 -7 -3 -13 1 -13 7 0 7 -8 24 -18 38
-22 32 -24 137 -3 242 7 36 10 85 7 110 l-5 45 9 -40 c5 -22 17 -79 26 -127 9
-48 20 -85 24 -83 4 2 6 30 5 62 -18 426 -18 469 -2 524 23 77 54 119 111 148
58 30 120 31 381 7 172 -15 352 -27 303 -19 -17 3 -30 14 -38 34 -19 46 -87
107 -134 121 -22 6 -55 24 -73 39 -34 30 -56 33 -325 45 l-136 6 -17 -26z
m-310 -422 c-49 -20 -110 -42 -135 -49 -25 -7 -78 -24 -117 -37 -40 -14 -73
-23 -73 -21 0 13 201 97 280 117 134 35 150 31 45 -10z m182 -246 c-3 -8 -6
-5 -6 6 -1 11 2 17 5 13 3 -3 4 -12 1 -19z m-323 -17 c-33 -16 -87 -36 -120
-46 -32 -9 -87 -28 -122 -42 -35 -14 -65 -23 -67 -21 -2 2 32 25 75 51 80 48
192 85 260 86 34 1 33 0 -26 -28z m-409 -666 c19 -38 50 -124 69 -190 35 -119
35 -121 25 -225 -10 -112 -32 -204 -51 -216 -8 -5 -9 -2 -4 12 30 73 32 106
17 314 -13 195 -51 314 -127 401 l-38 44 38 -35 c20 -19 53 -66 71 -105z
m4755 -1868 c-9 -35 -19 -48 -47 -61 -20 -9 -37 -16 -38 -14 -2 2 17 31 42 66
25 35 47 61 50 58 3 -3 0 -25 -7 -49z m-1125 -607 c3 -5 1 -10 -4 -10 -6 0
-11 5 -11 10 0 6 2 10 4 10 3 0 8 -4 11 -10z"/>
<path d="M6210 4000 c-30 -4 -45 -7 -32 -8 12 -1 22 -6 22 -12 0 -15 32 -12
74 5 61 26 49 29 -64 15z"/>
</g>
</svg>
